<svg xmlns="http://www.w3.org/2000/svg" viewBox="0 0 44 44">

  <!-- Left bracket [ -->
  <rect x="0"   y="5"    width="3" height="34"  rx="0.5" fill="#ff5c57"/>
  <rect x="0"   y="5"    width="9" height="2.5"  rx="0.5" fill="#ff5c57"/>
  <rect x="0"   y="36.5" width="9" height="2.5"  rx="0.5" fill="#ff5c57"/>

  <!-- Hammer -->
  <g transform="translate(10, 10)">
    <path fill="none" d="M0 0h24v24H0z"/>
    <path fill="#ff5c57" d="M17 8V2h3a1 1 0 0 1 1 1v4a1 1 0 0 1-1 1h-3zm-2 14a1 1 0 0 1-1 1h-3a1 1 0 0 1-1-1V8H2.5V6.074a1 2 0 0 1 .496-.863L8.5 2H15v20z"/>
  </g>

  <!-- Right bracket ] -->
  <rect x="41"  y="5"    width="3" height="34"  rx="0.5" fill="#ff5c57"/>
  <rect x="35"  y="5"    width="9" height="2.5"  rx="0.5" fill="#ff5c57"/>
  <rect x="35"  y="36.5" width="9" height="2.5"  rx="0.5" fill="#ff5c57"/>

</svg>
