<svg xmlns="http://www.w3.org/2000/svg" viewBox="0 0 32 32">

  <!-- Left bracket [ — thin, 2px bar, 6px cap -->
  <rect x="0" y="0" width="2"  height="32" rx="0.5" fill="#ff5c57"/>
  <rect x="0" y="0" width="6"  height="2"  rx="0.5" fill="#ff5c57"/>
  <rect x="0" y="30" width="6" height="2"  rx="0.5" fill="#ff5c57"/>

  <!-- Hammer — original 24x24 paths, fills the bracket interior -->
  <g transform="translate(6, 4)">
    <path fill="none" d="M0 0h24v24H0z"/>
    <path fill="#ff5c57" d="M17 8V2h3a1 1 0 0 1 1 1v4a1 1 0 0 1-1 1h-3zm-2 14a1 1 0 0 1-1 1h-4a1 1 0 0 1-1-1V8H2.5V6.074a1 1 0 0 1 .496-.863L8.5 2H15v20z"/>
  </g>

  <!-- Right bracket ] — thin, 2px bar, 6px cap -->
  <rect x="30" y="0" width="2"  height="32" rx="0.5" fill="#ff5c57"/>
  <rect x="26" y="0" width="6"  height="2"  rx="0.5" fill="#ff5c57"/>
  <rect x="26" y="30" width="6" height="2"  rx="0.5" fill="#ff5c57"/>

</svg>
