<svg xmlns="http://www.w3.org/2000/svg" viewBox="0 0 44 44">

  <!-- Left bracket [ -->
  <rect x="0"   y="5"    width="3" height="34"  rx="0.5" fill="#ff5c57"/>
  <rect x="0"   y="5"    width="9" height="2.5"  rx="0.5" fill="#ff5c57"/>
  <rect x="0"   y="36.5" width="9" height="2.5"  rx="0.5" fill="#ff5c57"/>

  <!-- Hammer: handle width 4 (was 6), head height 4 (was 6) -->
  <g transform="translate(10, 10)">
    <path fill="none" d="M0 0h24v24H0z"/>
    <path fill="#ff5c57" d="M16 7V2.1h3a1 1 0 0 1 1 1v3a1 1 0 0 1-1 1h-3zM14 22a1 1 0 0 1-1 1h-3a1 1 0 0 1-1-1V6H2.5V4.074a1 1 0 0 1 .496-.863L8.5 2H14v20z"/>
  </g>

  <!-- Right bracket ] -->
  <rect x="41"  y="5"    width="3" height="34"  rx="0.5" fill="#ff5c57"/>
  <rect x="35"  y="5"    width="9" height="2.5"  rx="0.5" fill="#ff5c57"/>
  <rect x="35"  y="36.5" width="9" height="2.5"  rx="0.5" fill="#ff5c57"/>

</svg>
