<svg xmlns="http://www.w3.org/2000/svg" viewBox="0 0 40 40">
  <!-- Left bracket [ -->
  <rect x="0.5" y="8"    width="2.5" height="24"  rx="0.5" fill="#ff5c57"/>
  <rect x="0.5" y="8"    width="7"   height="2.5"  rx="0.5" fill="#ff5c57"/>
  <rect x="0.5" y="29.5" width="7"   height="2.5"  rx="0.5" fill="#ff5c57"/>

  <!-- Hammer (original paths, translated to center) -->
  <g transform="translate(8.5, 8)" fill="#ff5c57">
    <path d="M17 8V2h3a1 1 0 0 1 1 1v4a1 1 0 0 1-1 1h-3zm-2 14a1 1 0 0 1-1 1h-4a1 1 0 0 1-1-1V8H2.5V6.074a1 1 0 0 1 .496-.863L8.5 2H15v20z"/>
  </g>

  <!-- Right bracket ] -->
  <rect x="37"  y="8"    width="2.5" height="24"  rx="0.5" fill="#ff5c57"/>
  <rect x="33"  y="8"    width="6.5" height="2.5"  rx="0.5" fill="#ff5c57"/>
  <rect x="33"  y="29.5" width="6.5" height="2.5"  rx="0.5" fill="#ff5c57"/>
</svg>
